<svg width="1920" height="930" viewBox="0 0 1920 930" fill="none" xmlns="http://www.w3.org/2000/svg">
<g clip-path="url(#clip0_112_2)">
<path d="M50.7385 82.3776L50.7385 41.1888" stroke="#909090" stroke-opacity="0.7"/>
<path d="M92.0972 41.5532L50.2549 41.5532" stroke="#909090" stroke-opacity="0.7"/>
</g>
<g clip-path="url(#clip1_112_2)">
<path d="M51.1381 319.755H99.5847" stroke="#909090" stroke-opacity="0.7"/>
<path d="M50.7385 360.944L50.7385 278.567" stroke="#909090" stroke-opacity="0.7"/>
</g>
<g clip-path="url(#clip2_112_2)">
<path d="M50.2549 610.436H92.0971" stroke="#909090" stroke-opacity="0.7"/>
<path d="M50.7385 651.433L50.7385 569.056" stroke="#909090" stroke-opacity="0.7"/>
</g>
<g clip-path="url(#clip3_112_2)">
<path d="M1878.16 610.072H1838.52" stroke="#909090" stroke-opacity="0.7"/>
<path d="M1878.48 568.883V651.26" stroke="#909090" stroke-opacity="0.7"/>
</g>
<g clip-path="url(#clip4_112_2)">
<path d="M1878.16 319.199H1838.52" stroke="#909090" stroke-opacity="0.7"/>
<path d="M1878.48 278.011V360.388" stroke="#909090" stroke-opacity="0.7"/>
</g>
<g clip-path="url(#clip5_112_2)">
<path d="M1428.88 41.1888V80.2097" stroke="#909090" stroke-opacity="0.7"/>
<path d="M1387.04 40.867H1470.72" stroke="#909090" stroke-opacity="0.7"/>
</g>
<path d="M500.615 888.811V849.79" stroke="#909090" stroke-opacity="0.7"/>
<path d="M541.376 888.447H459.33" stroke="#909090" stroke-opacity="0.7"/>
<g clip-path="url(#clip6_112_2)">
<path d="M1836.32 40.867L1878.16 40.867" stroke="#909090" stroke-opacity="0.7"/>
<path d="M1877.83 82.3776V41.1888" stroke="#909090" stroke-opacity="0.7"/>
</g>
<g clip-path="url(#clip7_112_2)">
<path d="M1878.48 846.893V888.081" stroke="#909090" stroke-opacity="0.7"/>
<path d="M1836.32 887.759H1878.16" stroke="#909090" stroke-opacity="0.7"/>
</g>
<g clip-path="url(#clip8_112_2)">
<path d="M93.434 888.447H51.26" stroke="#909090" stroke-opacity="0.7"/>
<path d="M51.5376 847.622L51.5376 888.811" stroke="#909090" stroke-opacity="0.7"/>
</g>
<g clip-path="url(#clip9_112_2)">
<path d="M500.817 278.011V360.388" stroke="#909090" stroke-opacity="0.7"/>
<path d="M458.127 319.008H541.812" stroke="#909090" stroke-opacity="0.7"/>
</g>
<g clip-path="url(#clip10_112_2)">
<path d="M500.817 568.883V651.26" stroke="#909090" stroke-opacity="0.7"/>
<path d="M458.127 610.263H541.812" stroke="#909090" stroke-opacity="0.7"/>
</g>
<g clip-path="url(#clip11_112_2)">
<path d="M965.172 568.883V651.26" stroke="#909090" stroke-opacity="0.7"/>
<path d="M922.559 610.263H1006.24" stroke="#909090" stroke-opacity="0.7"/>
</g>
<g clip-path="url(#clip12_112_2)">
<path d="M965.294 278.566V360.944" stroke="#909090" stroke-opacity="0.7"/>
<path d="M922.681 319.564H1006.37" stroke="#909090" stroke-opacity="0.7"/>
</g>
<g clip-path="url(#clip13_112_2)">
<path d="M1429.53 278.011V360.388" stroke="#909090" stroke-opacity="0.7"/>
<path d="M1386.99 319.008H1470.67" stroke="#909090" stroke-opacity="0.7"/>
</g>
<g clip-path="url(#clip14_112_2)">
<path d="M1429.57 569.056V651.434" stroke="#909090" stroke-opacity="0.7"/>
<path d="M1387.04 610.436H1470.72" stroke="#909090" stroke-opacity="0.7"/>
</g>
<path d="M964.773 888.082V849.061" stroke="#909090" stroke-opacity="0.7"/>
<path d="M1005.53 887.718H923.488" stroke="#909090" stroke-opacity="0.7"/>
<path d="M1429.13 888.082V849.061" stroke="#909090" stroke-opacity="0.7"/>
<path d="M1469.89 887.718H1387.84" stroke="#909090" stroke-opacity="0.7"/>
<g clip-path="url(#clip15_112_2)">
<path d="M964.523 41.1888V80.2097" stroke="#909090" stroke-opacity="0.7"/>
<path d="M922.681 40.867H1006.37" stroke="#909090" stroke-opacity="0.7"/>
</g>
<g clip-path="url(#clip16_112_2)">
<path d="M500.167 41.1888V80.2097" stroke="#909090" stroke-opacity="0.7"/>
<path d="M458.325 40.867H542.01" stroke="#909090" stroke-opacity="0.7"/>
</g>
<path d="M1809.05 95L1806.4 90.44H1804.64V95H1803.18V83.848H1806.78C1807.62 83.848 1808.33 83.992 1808.91 84.28C1809.49 84.568 1809.93 84.9573 1810.22 85.448C1810.51 85.9387 1810.65 86.4987 1810.65 87.128C1810.65 87.896 1810.43 88.5733 1809.98 89.16C1809.54 89.7467 1808.88 90.136 1808 90.328L1810.8 95H1809.05ZM1804.64 89.272H1806.78C1807.57 89.272 1808.16 89.08 1808.56 88.696C1808.95 88.3013 1809.15 87.7787 1809.15 87.128C1809.15 86.4667 1808.95 85.9547 1808.56 85.592C1808.17 85.2293 1807.58 85.048 1806.78 85.048H1804.64V89.272ZM1814.37 85.032V88.76H1818.43V89.96H1814.37V93.8H1818.91V95H1812.91V83.832H1818.91V85.032H1814.37ZM1820.57 89.416C1820.57 88.328 1820.82 87.352 1821.31 86.488C1821.8 85.6133 1822.47 84.9307 1823.31 84.44C1824.16 83.9493 1825.11 83.704 1826.14 83.704C1827.36 83.704 1828.42 83.9973 1829.33 84.584C1830.23 85.1707 1830.89 86.0027 1831.31 87.08H1829.57C1829.26 86.408 1828.81 85.8907 1828.22 85.528C1827.65 85.1653 1826.95 84.984 1826.14 84.984C1825.36 84.984 1824.66 85.1653 1824.05 85.528C1823.43 85.8907 1822.94 86.408 1822.59 87.08C1822.24 87.7413 1822.06 88.52 1822.06 89.416C1822.06 90.3013 1822.24 91.08 1822.59 91.752C1822.94 92.4133 1823.43 92.9253 1824.05 93.288C1824.66 93.6507 1825.36 93.832 1826.14 93.832C1826.95 93.832 1827.65 93.656 1828.22 93.304C1828.81 92.9413 1829.26 92.424 1829.57 91.752H1831.31C1830.89 92.8187 1830.23 93.6453 1829.33 94.232C1828.42 94.808 1827.36 95.096 1826.14 95.096C1825.11 95.096 1824.16 94.856 1823.31 94.376C1822.47 93.8853 1821.8 93.208 1821.31 92.344C1820.82 91.48 1820.57 90.504 1820.57 89.416Z" fill="#EAEEED"/>
<ellipse cx="1787.63" cy="89.8405" rx="7.63117" ry="7.44" fill="#D90000"/>
<path d="M174.397 82H102V111.681H174.397V82Z" fill="#EAEEED"/>
<path d="M161.621 111.681L177.591 100.542V122.819L161.621 111.681Z" fill="#121212"/>
<path d="M122.592 94.4667C122.592 95.1734 122.425 95.8401 122.092 96.4667C121.759 97.0934 121.225 97.6067 120.492 98.0067C119.759 98.3934 118.819 98.5867 117.672 98.5867H115.152V104.227H112.872V90.3267H117.672C118.739 90.3267 119.639 90.5134 120.372 90.8867C121.119 91.2467 121.672 91.7401 122.032 92.3667C122.405 92.9934 122.592 93.6934 122.592 94.4667ZM117.672 96.7267C118.539 96.7267 119.185 96.5334 119.612 96.1467C120.039 95.7467 120.252 95.1867 120.252 94.4667C120.252 92.9467 119.392 92.1867 117.672 92.1867H115.152V96.7267H117.672ZM131.107 104.367C129.813 104.367 128.62 104.067 127.527 103.467C126.447 102.853 125.587 102.007 124.947 100.927C124.32 99.8334 124.007 98.6067 124.007 97.2467C124.007 95.8867 124.32 94.6667 124.947 93.5867C125.587 92.5067 126.447 91.6667 127.527 91.0667C128.62 90.4534 129.813 90.1467 131.107 90.1467C132.413 90.1467 133.607 90.4534 134.687 91.0667C135.78 91.6667 136.64 92.5067 137.267 93.5867C137.893 94.6667 138.207 95.8867 138.207 97.2467C138.207 98.6067 137.893 99.8334 137.267 100.927C136.64 102.007 135.78 102.853 134.687 103.467C133.607 104.067 132.413 104.367 131.107 104.367ZM131.107 102.387C132.027 102.387 132.847 102.18 133.567 101.767C134.287 101.34 134.847 100.74 135.247 99.9667C135.66 99.1801 135.867 98.2734 135.867 97.2467C135.867 96.2201 135.66 95.3201 135.247 94.5467C134.847 93.7734 134.287 93.1801 133.567 92.7667C132.847 92.3534 132.027 92.1467 131.107 92.1467C130.187 92.1467 129.367 92.3534 128.647 92.7667C127.927 93.1801 127.36 93.7734 126.947 94.5467C126.547 95.3201 126.347 96.2201 126.347 97.2467C126.347 98.2734 126.547 99.1801 126.947 99.9667C127.36 100.74 127.927 101.34 128.647 101.767C129.367 102.18 130.187 102.387 131.107 102.387ZM147.67 104.227L144.47 98.6667H142.73V104.227H140.45V90.3267H145.25C146.317 90.3267 147.217 90.5134 147.95 90.8867C148.697 91.2601 149.25 91.7601 149.61 92.3867C149.984 93.0134 150.17 93.7134 150.17 94.4867C150.17 95.3934 149.904 96.2201 149.37 96.9667C148.85 97.7001 148.044 98.2001 146.95 98.4667L150.39 104.227H147.67ZM142.73 96.8467H145.25C146.104 96.8467 146.744 96.6334 147.17 96.2067C147.61 95.7801 147.83 95.2067 147.83 94.4867C147.83 93.7667 147.617 93.2067 147.19 92.8067C146.764 92.3934 146.117 92.1867 145.25 92.1867H142.73V96.8467ZM162.067 90.3267V92.1867H158.367V104.227H156.087V92.1867H152.367V90.3267H162.067Z" fill="#081625"/>
<path d="M192.905 90.3267V92.1867H187.005V96.2867H191.605V98.1467H187.005V104.227H184.725V90.3267H192.905ZM201.358 104.367C200.065 104.367 198.872 104.067 197.778 103.467C196.698 102.853 195.838 102.007 195.198 100.927C194.572 99.8334 194.258 98.6067 194.258 97.2467C194.258 95.8867 194.572 94.6667 195.198 93.5867C195.838 92.5067 196.698 91.6667 197.778 91.0667C198.872 90.4534 200.065 90.1467 201.358 90.1467C202.665 90.1467 203.858 90.4534 204.938 91.0667C206.032 91.6667 206.892 92.5067 207.518 93.5867C208.145 94.6667 208.458 95.8867 208.458 97.2467C208.458 98.6067 208.145 99.8334 207.518 100.927C206.892 102.007 206.032 102.853 204.938 103.467C203.858 104.067 202.665 104.367 201.358 104.367ZM201.358 102.387C202.278 102.387 203.098 102.18 203.818 101.767C204.538 101.34 205.098 100.74 205.498 99.9667C205.912 99.1801 206.118 98.2734 206.118 97.2467C206.118 96.2201 205.912 95.3201 205.498 94.5467C205.098 93.7734 204.538 93.1801 203.818 92.7667C203.098 92.3534 202.278 92.1467 201.358 92.1467C200.438 92.1467 199.618 92.3534 198.898 92.7667C198.178 93.1801 197.612 93.7734 197.198 94.5467C196.798 95.3201 196.598 96.2201 196.598 97.2467C196.598 98.2734 196.798 99.1801 197.198 99.9667C197.612 100.74 198.178 101.34 198.898 101.767C199.618 102.18 200.438 102.387 201.358 102.387ZM212.982 102.387H217.682V104.227H210.702V90.3267H212.982V102.387ZM221.869 90.3267V104.227H219.589V90.3267H221.869ZM231.202 104.367C229.909 104.367 228.715 104.067 227.622 103.467C226.542 102.853 225.682 102.007 225.042 100.927C224.415 99.8334 224.102 98.6067 224.102 97.2467C224.102 95.8867 224.415 94.6667 225.042 93.5867C225.682 92.5067 226.542 91.6667 227.622 91.0667C228.715 90.4534 229.909 90.1467 231.202 90.1467C232.509 90.1467 233.702 90.4534 234.782 91.0667C235.875 91.6667 236.735 92.5067 237.362 93.5867C237.989 94.6667 238.302 95.8867 238.302 97.2467C238.302 98.6067 237.989 99.8334 237.362 100.927C236.735 102.007 235.875 102.853 234.782 103.467C233.702 104.067 232.509 104.367 231.202 104.367ZM231.202 102.387C232.122 102.387 232.942 102.18 233.662 101.767C234.382 101.34 234.942 100.74 235.342 99.9667C235.755 99.1801 235.962 98.2734 235.962 97.2467C235.962 96.2201 235.755 95.3201 235.342 94.5467C234.942 93.7734 234.382 93.1801 233.662 92.7667C232.942 92.3534 232.122 92.1467 231.202 92.1467C230.282 92.1467 229.462 92.3534 228.742 92.7667C228.022 93.1801 227.455 93.7734 227.042 94.5467C226.642 95.3201 226.442 96.2201 226.442 97.2467C226.442 98.2734 226.642 99.1801 227.042 99.9667C227.455 100.74 228.022 101.34 228.742 101.767C229.462 102.18 230.282 102.387 231.202 102.387Z" fill="#EAEEED"/>
<defs>
<clipPath id="clip0_112_2">
<rect width="102.276" height="82.3776" fill="white" transform="matrix(-1 0 0 -1 102.276 82.3776)"/>
</clipPath>
<clipPath id="clip1_112_2">
<rect width="82.3776" height="102.276" fill="white" transform="matrix(0 -1 1 0 0 360.944)"/>
</clipPath>
<clipPath id="clip2_112_2">
<rect width="82.3776" height="102.276" fill="white" transform="matrix(0 -1 1 0 0 651.433)"/>
</clipPath>
<clipPath id="clip3_112_2">
<rect width="82.3776" height="83.6845" fill="white" transform="matrix(0 1 -1 0 1920 568.883)"/>
</clipPath>
<clipPath id="clip4_112_2">
<rect width="82.3776" height="83.6845" fill="white" transform="matrix(0 1 -1 0 1920 278.011)"/>
</clipPath>
<clipPath id="clip5_112_2">
<rect width="83.6845" height="82.3776" fill="white" transform="translate(1387.04)"/>
</clipPath>
<clipPath id="clip6_112_2">
<rect width="82.3776" height="83.6845" fill="white" transform="matrix(0 -1 1 0 1836.32 82.3776)"/>
</clipPath>
<clipPath id="clip7_112_2">
<rect width="83.6845" height="82.3742" fill="white" transform="translate(1836.32 846.893)"/>
</clipPath>
<clipPath id="clip8_112_2">
<rect width="82.3776" height="102.276" fill="white" transform="matrix(0 1 -1 0 102.276 847.622)"/>
</clipPath>
<clipPath id="clip9_112_2">
<rect width="102.276" height="82.3776" fill="white" transform="translate(449.279 278.011)"/>
</clipPath>
<clipPath id="clip10_112_2">
<rect width="102.276" height="82.3776" fill="white" transform="translate(449.279 568.883)"/>
</clipPath>
<clipPath id="clip11_112_2">
<rect width="102.276" height="82.3776" fill="white" transform="translate(913.635 568.883)"/>
</clipPath>
<clipPath id="clip12_112_2">
<rect width="102.276" height="82.3776" fill="white" transform="translate(913.757 278.566)"/>
</clipPath>
<clipPath id="clip13_112_2">
<rect width="102.276" height="82.3776" fill="white" transform="translate(1377.99 278.011)"/>
</clipPath>
<clipPath id="clip14_112_2">
<rect width="102.276" height="82.3776" fill="white" transform="translate(1378.04 569.056)"/>
</clipPath>
<clipPath id="clip15_112_2">
<rect width="83.6845" height="82.3776" fill="white" transform="translate(922.681)"/>
</clipPath>
<clipPath id="clip16_112_2">
<rect width="83.6845" height="82.3776" fill="white" transform="translate(458.325)"/>
</clipPath>
</defs>
</svg>
