<svg width="1434" height="858" viewBox="0 0 1434 858" fill="none" xmlns="http://www.w3.org/2000/svg">
<g clip-path="url(#clip0_103_64)">
<path d="M37.7031 76L37.7031 38" stroke="#909090" stroke-opacity="0.7"/>
<path d="M76 38.2969L38 38.2969" stroke="#909090" stroke-opacity="0.7"/>
</g>
<path d="M372 38V74" stroke="#909090" stroke-opacity="0.7"/>
<path d="M334 37.7031H410" stroke="#909090" stroke-opacity="0.7"/>
<path d="M717 38V74" stroke="#909090" stroke-opacity="0.7"/>
<path d="M679 37.7031H755" stroke="#909090" stroke-opacity="0.7"/>
<path d="M38 295H74" stroke="#909090" stroke-opacity="0.7"/>
<path d="M37.7031 333L37.7031 257" stroke="#909090" stroke-opacity="0.7"/>
<g clip-path="url(#clip1_103_64)">
<path d="M38 563H74" stroke="#909090" stroke-opacity="0.7"/>
<path d="M37.7031 601L37.7031 525" stroke="#909090" stroke-opacity="0.7"/>
</g>
<g clip-path="url(#clip2_103_64)">
<path d="M1396 563H1360" stroke="#909090" stroke-opacity="0.7"/>
<path d="M1396.3 525V601" stroke="#909090" stroke-opacity="0.7"/>
</g>
<path d="M1396 295H1360" stroke="#909090" stroke-opacity="0.7"/>
<path d="M1396.3 257V333" stroke="#909090" stroke-opacity="0.7"/>
<path d="M1062 38V74" stroke="#909090" stroke-opacity="0.7"/>
<path d="M1024 37.7031H1100" stroke="#909090" stroke-opacity="0.7"/>
<path d="M1062 820V784" stroke="#909090" stroke-opacity="0.7"/>
<path d="M1100 820.297H1024" stroke="#909090" stroke-opacity="0.7"/>
<path d="M717 820V784" stroke="#909090" stroke-opacity="0.7"/>
<path d="M755 820.297H679" stroke="#909090" stroke-opacity="0.7"/>
<path d="M372 820V784" stroke="#909090" stroke-opacity="0.7"/>
<path d="M410 820.297H334" stroke="#909090" stroke-opacity="0.7"/>
<path d="M1358 37.7031L1396 37.7031" stroke="#909090" stroke-opacity="0.7"/>
<path d="M1395.7 76V38" stroke="#909090" stroke-opacity="0.7"/>
<path d="M1396.3 782V820" stroke="#909090" stroke-opacity="0.7"/>
<path d="M1358 819.703H1396" stroke="#909090" stroke-opacity="0.7"/>
<path d="M76 820.297H38" stroke="#909090" stroke-opacity="0.7"/>
<path d="M38.2969 782L38.2969 820" stroke="#909090" stroke-opacity="0.7"/>
<g clip-path="url(#clip3_103_64)">
<path d="M372.297 257V333" stroke="#909090" stroke-opacity="0.7"/>
<path d="M334 294.703H410" stroke="#909090" stroke-opacity="0.7"/>
</g>
<g clip-path="url(#clip4_103_64)">
<path d="M372.297 525V601" stroke="#909090" stroke-opacity="0.7"/>
<path d="M334 562.703H410" stroke="#909090" stroke-opacity="0.7"/>
</g>
<g clip-path="url(#clip5_103_64)">
<path d="M717.297 525V601" stroke="#909090" stroke-opacity="0.7"/>
<path d="M679 562.703H755" stroke="#909090" stroke-opacity="0.7"/>
</g>
<g clip-path="url(#clip6_103_64)">
<path d="M717.297 257V333" stroke="#909090" stroke-opacity="0.7"/>
<path d="M679 294.703H755" stroke="#909090" stroke-opacity="0.7"/>
</g>
<g clip-path="url(#clip7_103_64)">
<path d="M1062.3 257V333" stroke="#909090" stroke-opacity="0.7"/>
<path d="M1024 294.703H1100" stroke="#909090" stroke-opacity="0.7"/>
</g>
<g clip-path="url(#clip8_103_64)">
<path d="M1062.3 525V601" stroke="#909090" stroke-opacity="0.7"/>
<path d="M1024 562.703H1100" stroke="#909090" stroke-opacity="0.7"/>
</g>
<path d="M1337.46 81L1335.14 77.01H1333.6V81H1332.32V71.242H1335.47C1336.21 71.242 1336.83 71.368 1337.34 71.62C1337.85 71.872 1338.23 72.2127 1338.48 72.642C1338.74 73.0713 1338.86 73.5613 1338.86 74.112C1338.86 74.784 1338.67 75.3767 1338.27 75.89C1337.89 76.4033 1337.31 76.744 1336.54 76.912L1338.99 81H1337.46ZM1333.6 75.988H1335.47C1336.16 75.988 1336.68 75.82 1337.03 75.484C1337.37 75.1387 1337.55 74.6813 1337.55 74.112C1337.55 73.5333 1337.37 73.0853 1337.03 72.768C1336.69 72.4507 1336.17 72.292 1335.47 72.292H1333.6V75.988ZM1342.11 72.278V75.54H1345.67V76.59H1342.11V79.95H1346.09V81H1340.84V71.228H1346.09V72.278H1342.11ZM1347.54 76.114C1347.54 75.162 1347.76 74.308 1348.19 73.552C1348.62 72.7867 1349.2 72.1893 1349.94 71.76C1350.68 71.3307 1351.51 71.116 1352.41 71.116C1353.48 71.116 1354.41 71.3727 1355.2 71.886C1355.99 72.3993 1356.57 73.1273 1356.94 74.07H1355.41C1355.14 73.482 1354.75 73.0293 1354.23 72.712C1353.73 72.3947 1353.12 72.236 1352.41 72.236C1351.73 72.236 1351.12 72.3947 1350.58 72.712C1350.04 73.0293 1349.61 73.482 1349.31 74.07C1349 74.6487 1348.84 75.33 1348.84 76.114C1348.84 76.8887 1349 77.57 1349.31 78.158C1349.61 78.7367 1350.04 79.1847 1350.58 79.502C1351.12 79.8193 1351.73 79.978 1352.41 79.978C1353.12 79.978 1353.73 79.824 1354.23 79.516C1354.75 79.1987 1355.14 78.746 1355.41 78.158H1356.94C1356.57 79.0913 1355.99 79.8147 1355.2 80.328C1354.41 80.832 1353.48 81.084 1352.41 81.084C1351.51 81.084 1350.68 80.874 1349.94 80.454C1349.2 80.0247 1348.62 79.432 1348.19 78.676C1347.76 77.92 1347.54 77.066 1347.54 76.114Z" fill="#081625"/>
<circle cx="1321" cy="76" r="6" fill="#D90000"/>
<path d="M125 66H71V90H125V66Z" fill="#081625"/>
<path d="M117 90L125.25 83.9378V96.0622L117 90Z" fill="#EAEEED"/>
<path d="M86.1962 75.192C86.1962 75.7573 86.0629 76.2907 85.7962 76.792C85.5295 77.2933 85.1029 77.704 84.5162 78.024C83.9295 78.3333 83.1775 78.488 82.2602 78.488H80.2442V83H78.4202V71.88H82.2602C83.1135 71.88 83.8335 72.0293 84.4202 72.328C85.0175 72.616 85.4602 73.0107 85.7482 73.512C86.0469 74.0133 86.1962 74.5733 86.1962 75.192ZM82.2602 77C82.9535 77 83.4709 76.8453 83.8122 76.536C84.1535 76.216 84.3242 75.768 84.3242 75.192C84.3242 73.976 83.6362 73.368 82.2602 73.368H80.2442V77H82.2602ZM93.0078 83.112C91.9731 83.112 91.0185 82.872 90.1438 82.392C89.2798 81.9013 88.5918 81.224 88.0798 80.36C87.5785 79.4853 87.3278 78.504 87.3278 77.416C87.3278 76.328 87.5785 75.352 88.0798 74.488C88.5918 73.624 89.2798 72.952 90.1438 72.472C91.0185 71.9813 91.9731 71.736 93.0078 71.736C94.0531 71.736 95.0078 71.9813 95.8718 72.472C96.7465 72.952 97.4345 73.624 97.9358 74.488C98.4371 75.352 98.6878 76.328 98.6878 77.416C98.6878 78.504 98.4371 79.4853 97.9358 80.36C97.4345 81.224 96.7465 81.9013 95.8718 82.392C95.0078 82.872 94.0531 83.112 93.0078 83.112ZM93.0078 81.528C93.7438 81.528 94.3998 81.3627 94.9758 81.032C95.5518 80.6907 95.9998 80.2107 96.3198 79.592C96.6505 78.9627 96.8158 78.2373 96.8158 77.416C96.8158 76.5947 96.6505 75.8747 96.3198 75.256C95.9998 74.6373 95.5518 74.1627 94.9758 73.832C94.3998 73.5013 93.7438 73.336 93.0078 73.336C92.2718 73.336 91.6158 73.5013 91.0398 73.832C90.4638 74.1627 90.0105 74.6373 89.6798 75.256C89.3598 75.8747 89.1998 76.5947 89.1998 77.416C89.1998 78.2373 89.3598 78.9627 89.6798 79.592C90.0105 80.2107 90.4638 80.6907 91.0398 81.032C91.6158 81.3627 92.2718 81.528 93.0078 81.528ZM106.259 83L103.699 78.552H102.307V83H100.483V71.88H104.323C105.176 71.88 105.896 72.0293 106.483 72.328C107.08 72.6267 107.523 73.0267 107.811 73.528C108.109 74.0293 108.259 74.5893 108.259 75.208C108.259 75.9333 108.045 76.5947 107.619 77.192C107.203 77.7787 106.557 78.1787 105.683 78.392L108.435 83H106.259ZM102.307 77.096H104.323C105.005 77.096 105.517 76.9253 105.859 76.584C106.211 76.2427 106.387 75.784 106.387 75.208C106.387 74.632 106.216 74.184 105.875 73.864C105.533 73.5333 105.016 73.368 104.323 73.368H102.307V77.096ZM117.776 71.88V73.368H114.816V83H112.992V73.368H110.016V71.88H117.776Z" fill="#EAEEED"/>
<path d="M135.744 71.88V73.368H131.024V76.648H134.704V78.136H131.024V83H129.2V71.88H135.744ZM142.506 83.112C141.472 83.112 140.517 82.872 139.642 82.392C138.778 81.9013 138.09 81.224 137.578 80.36C137.077 79.4853 136.826 78.504 136.826 77.416C136.826 76.328 137.077 75.352 137.578 74.488C138.09 73.624 138.778 72.952 139.642 72.472C140.517 71.9813 141.472 71.736 142.506 71.736C143.552 71.736 144.506 71.9813 145.37 72.472C146.245 72.952 146.933 73.624 147.434 74.488C147.936 75.352 148.186 76.328 148.186 77.416C148.186 78.504 147.936 79.4853 147.434 80.36C146.933 81.224 146.245 81.9013 145.37 82.392C144.506 82.872 143.552 83.112 142.506 83.112ZM142.506 81.528C143.242 81.528 143.898 81.3627 144.474 81.032C145.05 80.6907 145.498 80.2107 145.818 79.592C146.149 78.9627 146.314 78.2373 146.314 77.416C146.314 76.5947 146.149 75.8747 145.818 75.256C145.498 74.6373 145.05 74.1627 144.474 73.832C143.898 73.5013 143.242 73.336 142.506 73.336C141.77 73.336 141.114 73.5013 140.538 73.832C139.962 74.1627 139.509 74.6373 139.178 75.256C138.858 75.8747 138.698 76.5947 138.698 77.416C138.698 78.2373 138.858 78.9627 139.178 79.592C139.509 80.2107 139.962 80.6907 140.538 81.032C141.114 81.3627 141.77 81.528 142.506 81.528ZM151.805 81.528H155.565V83H149.981V71.88H151.805V81.528ZM158.915 71.88V83H157.091V71.88H158.915ZM166.381 83.112C165.347 83.112 164.392 82.872 163.517 82.392C162.653 81.9013 161.965 81.224 161.453 80.36C160.952 79.4853 160.701 78.504 160.701 77.416C160.701 76.328 160.952 75.352 161.453 74.488C161.965 73.624 162.653 72.952 163.517 72.472C164.392 71.9813 165.347 71.736 166.381 71.736C167.427 71.736 168.381 71.9813 169.245 72.472C170.12 72.952 170.808 73.624 171.309 74.488C171.811 75.352 172.061 76.328 172.061 77.416C172.061 78.504 171.811 79.4853 171.309 80.36C170.808 81.224 170.12 81.9013 169.245 82.392C168.381 82.872 167.427 83.112 166.381 83.112ZM166.381 81.528C167.117 81.528 167.773 81.3627 168.349 81.032C168.925 80.6907 169.373 80.2107 169.693 79.592C170.024 78.9627 170.189 78.2373 170.189 77.416C170.189 76.5947 170.024 75.8747 169.693 75.256C169.373 74.6373 168.925 74.1627 168.349 73.832C167.773 73.5013 167.117 73.336 166.381 73.336C165.645 73.336 164.989 73.5013 164.413 73.832C163.837 74.1627 163.384 74.6373 163.053 75.256C162.733 75.8747 162.573 76.5947 162.573 77.416C162.573 78.2373 162.733 78.9627 163.053 79.592C163.384 80.2107 163.837 80.6907 164.413 81.032C164.989 81.3627 165.645 81.528 166.381 81.528Z" fill="#081625"/>
<defs>
<clipPath id="clip0_103_64">
<rect width="76" height="76" fill="white" transform="matrix(-1 0 0 -1 76 76)"/>
</clipPath>
<clipPath id="clip1_103_64">
<rect width="76" height="76" fill="white" transform="matrix(0 -1 1 0 0 601)"/>
</clipPath>
<clipPath id="clip2_103_64">
<rect width="76" height="76" fill="white" transform="matrix(0 1 -1 0 1434 525)"/>
</clipPath>
<clipPath id="clip3_103_64">
<rect width="76" height="76" fill="white" transform="translate(334 257)"/>
</clipPath>
<clipPath id="clip4_103_64">
<rect width="76" height="76" fill="white" transform="translate(334 525)"/>
</clipPath>
<clipPath id="clip5_103_64">
<rect width="76" height="76" fill="white" transform="translate(679 525)"/>
</clipPath>
<clipPath id="clip6_103_64">
<rect width="76" height="76" fill="white" transform="translate(679 257)"/>
</clipPath>
<clipPath id="clip7_103_64">
<rect width="76" height="76" fill="white" transform="translate(1024 257)"/>
</clipPath>
<clipPath id="clip8_103_64">
<rect width="76" height="76" fill="white" transform="translate(1024 525)"/>
</clipPath>
</defs>
</svg>
