<svg width="1920" height="940" viewBox="0 0 1920 940" fill="none" xmlns="http://www.w3.org/2000/svg">
<g clip-path="url(#clip0_112_2)">
<path d="M50.4811 83.2634L50.4811 41.6317" stroke="#909090" stroke-opacity="0.7"/>
<path d="M101.757 41.9569L50.8786 41.9569" stroke="#909090" stroke-opacity="0.7"/>
</g>
<g clip-path="url(#clip1_112_2)">
<path d="M498.075 41.6317V81.0723" stroke="#909090" stroke-opacity="0.7"/>
<path d="M447.197 41.3064H548.954" stroke="#909090" stroke-opacity="0.7"/>
</g>
<g clip-path="url(#clip2_112_2)">
<path d="M960 41.6317V81.0723" stroke="#909090" stroke-opacity="0.7"/>
<path d="M909.121 41.3064H1010.88" stroke="#909090" stroke-opacity="0.7"/>
</g>
<g clip-path="url(#clip3_112_2)">
<path d="M50.8787 323.194H99.0795" stroke="#909090" stroke-opacity="0.7"/>
<path d="M50.4811 364.825L50.4811 281.562" stroke="#909090" stroke-opacity="0.7"/>
</g>
<g clip-path="url(#clip4_112_2)">
<path d="M50.8787 616.807H99.0795" stroke="#909090" stroke-opacity="0.7"/>
<path d="M50.4811 658.438L50.4811 575.175" stroke="#909090" stroke-opacity="0.7"/>
</g>
<g clip-path="url(#clip5_112_2)">
<path d="M1869.12 616.807H1820.92" stroke="#909090" stroke-opacity="0.7"/>
<path d="M1869.52 575.175V658.438" stroke="#909090" stroke-opacity="0.7"/>
</g>
<g clip-path="url(#clip6_112_2)">
<path d="M1869.12 323.194H1820.92" stroke="#909090" stroke-opacity="0.7"/>
<path d="M1869.52 281.562V364.825" stroke="#909090" stroke-opacity="0.7"/>
</g>
<g clip-path="url(#clip7_112_2)">
<path d="M1421.92 41.6317V81.0723" stroke="#909090" stroke-opacity="0.7"/>
<path d="M1371.05 41.3064H1472.8" stroke="#909090" stroke-opacity="0.7"/>
</g>
<g clip-path="url(#clip8_112_2)">
<path d="M1421.92 898.368V858.928" stroke="#909090" stroke-opacity="0.7"/>
<path d="M1472.8 898.694H1371.05" stroke="#909090" stroke-opacity="0.7"/>
</g>
<g clip-path="url(#clip9_112_2)">
<path d="M960 898.368V858.928" stroke="#909090" stroke-opacity="0.7"/>
<path d="M1010.88 898.694H909.121" stroke="#909090" stroke-opacity="0.7"/>
</g>
<g clip-path="url(#clip10_112_2)">
<path d="M498.075 898.368V858.928" stroke="#909090" stroke-opacity="0.7"/>
<path d="M548.954 898.694H447.197" stroke="#909090" stroke-opacity="0.7"/>
</g>
<g clip-path="url(#clip11_112_2)">
<path d="M1818.24 41.3064L1869.12 41.3064" stroke="#909090" stroke-opacity="0.7"/>
<path d="M1868.72 83.2634V41.6317" stroke="#909090" stroke-opacity="0.7"/>
</g>
<g clip-path="url(#clip12_112_2)">
<path d="M1869.52 856.737V898.368" stroke="#909090" stroke-opacity="0.7"/>
<path d="M1818.24 898.043H1869.12" stroke="#909090" stroke-opacity="0.7"/>
</g>
<g clip-path="url(#clip13_112_2)">
<path d="M101.757 898.693H50.8786" stroke="#909090" stroke-opacity="0.7"/>
<path d="M51.2761 856.737L51.2761 898.368" stroke="#909090" stroke-opacity="0.7"/>
</g>
<g clip-path="url(#clip14_112_2)">
<path d="M498.276 281V364.263" stroke="#909090" stroke-opacity="0.7"/>
<path d="M455.803 322.438H539.063" stroke="#909090" stroke-opacity="0.7"/>
</g>
<g clip-path="url(#clip15_112_2)">
<path d="M498.276 575V658.263" stroke="#909090" stroke-opacity="0.7"/>
<path d="M455.803 616.825H539.063" stroke="#909090" stroke-opacity="0.7"/>
</g>
<g clip-path="url(#clip16_112_2)">
<path d="M960.276 575V658.263" stroke="#909090" stroke-opacity="0.7"/>
<path d="M917.879 616.825H1001.14" stroke="#909090" stroke-opacity="0.7"/>
</g>
<g clip-path="url(#clip17_112_2)">
<path d="M960.397 281.562V364.825" stroke="#909090" stroke-opacity="0.7"/>
<path d="M918 323H1001.26" stroke="#909090" stroke-opacity="0.7"/>
</g>
<g clip-path="url(#clip18_112_2)">
<path d="M1422.28 281V364.263" stroke="#909090" stroke-opacity="0.7"/>
<path d="M1379.95 322.438H1463.21" stroke="#909090" stroke-opacity="0.7"/>
</g>
<g clip-path="url(#clip19_112_2)">
<path d="M1422.32 575.175V658.438" stroke="#909090" stroke-opacity="0.7"/>
<path d="M1380 617H1463.26" stroke="#909090" stroke-opacity="0.7"/>
</g>
<path d="M1790.86 96L1788.21 91.44H1786.45V96H1784.99V84.848H1788.59C1789.43 84.848 1790.14 84.992 1790.72 85.28C1791.31 85.568 1791.74 85.9573 1792.03 86.448C1792.32 86.9387 1792.46 87.4987 1792.46 88.128C1792.46 88.896 1792.24 89.5733 1791.79 90.16C1791.35 90.7467 1790.69 91.136 1789.81 91.328L1792.61 96H1790.86ZM1786.45 90.272H1788.59C1789.38 90.272 1789.97 90.08 1790.37 89.696C1790.76 89.3013 1790.96 88.7787 1790.96 88.128C1790.96 87.4667 1790.76 86.9547 1790.37 86.592C1789.98 86.2293 1789.39 86.048 1788.59 86.048H1786.45V90.272ZM1796.18 86.032V89.76H1800.25V90.96H1796.18V94.8H1800.73V96H1794.73V84.832H1800.73V86.032H1796.18ZM1802.38 90.416C1802.38 89.328 1802.63 88.352 1803.12 87.488C1803.61 86.6133 1804.28 85.9307 1805.12 85.44C1805.97 84.9493 1806.92 84.704 1807.95 84.704C1809.17 84.704 1810.23 84.9973 1811.14 85.584C1812.04 86.1707 1812.7 87.0027 1813.12 88.08H1811.38C1811.07 87.408 1810.62 86.8907 1810.03 86.528C1809.46 86.1653 1808.76 85.984 1807.95 85.984C1807.17 85.984 1806.48 86.1653 1805.86 86.528C1805.24 86.8907 1804.75 87.408 1804.4 88.08C1804.05 88.7413 1803.87 89.52 1803.87 90.416C1803.87 91.3013 1804.05 92.08 1804.4 92.752C1804.75 93.4133 1805.24 93.9253 1805.86 94.288C1806.48 94.6507 1807.17 94.832 1807.95 94.832C1808.76 94.832 1809.46 94.656 1810.03 94.304C1810.62 93.9413 1811.07 93.424 1811.38 92.752H1813.12C1812.7 93.8187 1812.04 94.6453 1811.14 95.232C1810.23 95.808 1809.17 96.096 1807.95 96.096C1806.92 96.096 1805.97 95.856 1805.12 95.376C1804.28 94.8853 1803.61 94.208 1803.12 93.344C1802.63 92.48 1802.38 91.504 1802.38 90.416Z" fill="#081625"/>
<ellipse cx="1769.59" cy="90.9248" rx="7.59245" ry="7.52" fill="#D90000"/>
<path d="M174.03 83H102V113H174.03V83Z" fill="#081625"/>
<path d="M161.319 113L177.207 101.742V124.258L161.319 113Z" fill="#EAEEED"/>
<path d="M122.545 95.4692C122.545 96.1759 122.378 96.8425 122.045 97.4692C121.711 98.0959 121.178 98.6092 120.445 99.0092C119.711 99.3959 118.771 99.5892 117.625 99.5892H115.105V105.229H112.825V91.3292H117.625C118.691 91.3292 119.591 91.5159 120.325 91.8892C121.071 92.2492 121.625 92.7425 121.985 93.3692C122.358 93.9959 122.545 94.6959 122.545 95.4692ZM117.625 97.7292C118.491 97.7292 119.138 97.5359 119.565 97.1492C119.991 96.7492 120.205 96.1892 120.205 95.4692C120.205 93.9492 119.345 93.1892 117.625 93.1892H115.105V97.7292H117.625ZM131.059 105.369C129.766 105.369 128.572 105.069 127.479 104.469C126.399 103.856 125.539 103.009 124.899 101.929C124.272 100.836 123.959 99.6092 123.959 98.2492C123.959 96.8892 124.272 95.6692 124.899 94.5892C125.539 93.5092 126.399 92.6692 127.479 92.0692C128.572 91.4559 129.766 91.1492 131.059 91.1492C132.366 91.1492 133.559 91.4559 134.639 92.0692C135.732 92.6692 136.592 93.5092 137.219 94.5892C137.846 95.6692 138.159 96.8892 138.159 98.2492C138.159 99.6092 137.846 100.836 137.219 101.929C136.592 103.009 135.732 103.856 134.639 104.469C133.559 105.069 132.366 105.369 131.059 105.369ZM131.059 103.389C131.979 103.389 132.799 103.183 133.519 102.769C134.239 102.343 134.799 101.743 135.199 100.969C135.612 100.183 135.819 99.2759 135.819 98.2492C135.819 97.2225 135.612 96.3225 135.199 95.5492C134.799 94.7759 134.239 94.1825 133.519 93.7692C132.799 93.3559 131.979 93.1492 131.059 93.1492C130.139 93.1492 129.319 93.3559 128.599 93.7692C127.879 94.1825 127.312 94.7759 126.899 95.5492C126.499 96.3225 126.299 97.2225 126.299 98.2492C126.299 99.2759 126.499 100.183 126.899 100.969C127.312 101.743 127.879 102.343 128.599 102.769C129.319 103.183 130.139 103.389 131.059 103.389ZM147.623 105.229L144.423 99.6692H142.683V105.229H140.403V91.3292H145.203C146.269 91.3292 147.169 91.5159 147.903 91.8892C148.649 92.2625 149.203 92.7625 149.563 93.3892C149.936 94.0159 150.123 94.7159 150.123 95.4892C150.123 96.3959 149.856 97.2225 149.323 97.9692C148.803 98.7025 147.996 99.2025 146.903 99.4692L150.343 105.229H147.623ZM142.683 97.8492H145.203C146.056 97.8492 146.696 97.6359 147.123 97.2092C147.563 96.7825 147.783 96.2092 147.783 95.4892C147.783 94.7692 147.569 94.2092 147.143 93.8092C146.716 93.3959 146.069 93.1892 145.203 93.1892H142.683V97.8492ZM162.019 91.3292V93.1892H158.319V105.229H156.039V93.1892H152.319V91.3292H162.019Z" fill="#EAEEED"/>
<path d="M192.493 91.3292V93.1892H186.593V97.2892H191.193V99.1492H186.593V105.229H184.313V91.3292H192.493ZM200.946 105.369C199.653 105.369 198.459 105.069 197.366 104.469C196.286 103.856 195.426 103.009 194.786 101.929C194.159 100.836 193.846 99.6092 193.846 98.2492C193.846 96.8892 194.159 95.6692 194.786 94.5892C195.426 93.5092 196.286 92.6692 197.366 92.0692C198.459 91.4559 199.653 91.1492 200.946 91.1492C202.253 91.1492 203.446 91.4559 204.526 92.0692C205.619 92.6692 206.479 93.5092 207.106 94.5892C207.733 95.6692 208.046 96.8892 208.046 98.2492C208.046 99.6092 207.733 100.836 207.106 101.929C206.479 103.009 205.619 103.856 204.526 104.469C203.446 105.069 202.253 105.369 200.946 105.369ZM200.946 103.389C201.866 103.389 202.686 103.183 203.406 102.769C204.126 102.343 204.686 101.743 205.086 100.969C205.499 100.183 205.706 99.2759 205.706 98.2492C205.706 97.2225 205.499 96.3225 205.086 95.5492C204.686 94.7759 204.126 94.1825 203.406 93.7692C202.686 93.3559 201.866 93.1492 200.946 93.1492C200.026 93.1492 199.206 93.3559 198.486 93.7692C197.766 94.1825 197.199 94.7759 196.786 95.5492C196.386 96.3225 196.186 97.2225 196.186 98.2492C196.186 99.2759 196.386 100.183 196.786 100.969C197.199 101.743 197.766 102.343 198.486 102.769C199.206 103.183 200.026 103.389 200.946 103.389ZM212.57 103.389H217.27V105.229H210.29V91.3292H212.57V103.389ZM221.456 91.3292V105.229H219.176V91.3292H221.456ZM230.79 105.369C229.497 105.369 228.303 105.069 227.21 104.469C226.13 103.856 225.27 103.009 224.63 101.929C224.003 100.836 223.69 99.6092 223.69 98.2492C223.69 96.8892 224.003 95.6692 224.63 94.5892C225.27 93.5092 226.13 92.6692 227.21 92.0692C228.303 91.4559 229.497 91.1492 230.79 91.1492C232.097 91.1492 233.29 91.4559 234.37 92.0692C235.463 92.6692 236.323 93.5092 236.95 94.5892C237.577 95.6692 237.89 96.8892 237.89 98.2492C237.89 99.6092 237.577 100.836 236.95 101.929C236.323 103.009 235.463 103.856 234.37 104.469C233.29 105.069 232.097 105.369 230.79 105.369ZM230.79 103.389C231.71 103.389 232.53 103.183 233.25 102.769C233.97 102.343 234.53 101.743 234.93 100.969C235.343 100.183 235.55 99.2759 235.55 98.2492C235.55 97.2225 235.343 96.3225 234.93 95.5492C234.53 94.7759 233.97 94.1825 233.25 93.7692C232.53 93.3559 231.71 93.1492 230.79 93.1492C229.87 93.1492 229.05 93.3559 228.33 93.7692C227.61 94.1825 227.043 94.7759 226.63 95.5492C226.23 96.3225 226.03 97.2225 226.03 98.2492C226.03 99.2759 226.23 100.183 226.63 100.969C227.043 101.743 227.61 102.343 228.33 102.769C229.05 103.183 229.87 103.389 230.79 103.389Z" fill="#081625"/>
<defs>
<clipPath id="clip0_112_2">
<rect width="101.757" height="83.2634" fill="white" transform="matrix(-1 0 0 -1 101.757 83.2634)"/>
</clipPath>
<clipPath id="clip1_112_2">
<rect width="101.757" height="83.2634" fill="white" transform="translate(447.197)"/>
</clipPath>
<clipPath id="clip2_112_2">
<rect width="101.757" height="83.2634" fill="white" transform="translate(909.121)"/>
</clipPath>
<clipPath id="clip3_112_2">
<rect width="83.2634" height="101.757" fill="white" transform="matrix(0 -1 1 0 0 364.825)"/>
</clipPath>
<clipPath id="clip4_112_2">
<rect width="83.2634" height="101.757" fill="white" transform="matrix(0 -1 1 0 0 658.438)"/>
</clipPath>
<clipPath id="clip5_112_2">
<rect width="83.2634" height="101.757" fill="white" transform="matrix(0 1 -1 0 1920 575.175)"/>
</clipPath>
<clipPath id="clip6_112_2">
<rect width="83.2634" height="101.757" fill="white" transform="matrix(0 1 -1 0 1920 281.562)"/>
</clipPath>
<clipPath id="clip7_112_2">
<rect width="101.757" height="83.2634" fill="white" transform="translate(1371.05)"/>
</clipPath>
<clipPath id="clip8_112_2">
<rect width="101.757" height="83.2634" fill="white" transform="matrix(-1 0 0 -1 1472.8 940)"/>
</clipPath>
<clipPath id="clip9_112_2">
<rect width="101.757" height="83.2634" fill="white" transform="matrix(-1 0 0 -1 1010.88 940)"/>
</clipPath>
<clipPath id="clip10_112_2">
<rect width="101.757" height="83.2634" fill="white" transform="matrix(-1 0 0 -1 548.954 940)"/>
</clipPath>
<clipPath id="clip11_112_2">
<rect width="83.2634" height="101.757" fill="white" transform="matrix(0 -1 1 0 1818.24 83.2634)"/>
</clipPath>
<clipPath id="clip12_112_2">
<rect width="101.757" height="83.2634" fill="white" transform="translate(1818.24 856.737)"/>
</clipPath>
<clipPath id="clip13_112_2">
<rect width="83.2634" height="101.757" fill="white" transform="matrix(0 1 -1 0 101.757 856.737)"/>
</clipPath>
<clipPath id="clip14_112_2">
<rect width="101.757" height="83.2634" fill="white" transform="translate(447 281)"/>
</clipPath>
<clipPath id="clip15_112_2">
<rect width="101.757" height="83.2634" fill="white" transform="translate(447 575)"/>
</clipPath>
<clipPath id="clip16_112_2">
<rect width="101.757" height="83.2634" fill="white" transform="translate(909 575)"/>
</clipPath>
<clipPath id="clip17_112_2">
<rect width="101.757" height="83.2634" fill="white" transform="translate(909.121 281.562)"/>
</clipPath>
<clipPath id="clip18_112_2">
<rect width="101.757" height="83.2634" fill="white" transform="translate(1371 281)"/>
</clipPath>
<clipPath id="clip19_112_2">
<rect width="101.757" height="83.2634" fill="white" transform="translate(1371.05 575.175)"/>
</clipPath>
</defs>
</svg>
