<svg width="1434" height="858" viewBox="0 0 1434 858" fill="none" xmlns="http://www.w3.org/2000/svg">
<g clip-path="url(#clip0_103_64)">
<path d="M37.7031 76L37.7031 38" stroke="#909090" stroke-opacity="0.7"/>
<path d="M76 38.2969L38 38.2969" stroke="#909090" stroke-opacity="0.7"/>
</g>
<path d="M372 38V74" stroke="#909090" stroke-opacity="0.7"/>
<path d="M334 37.7031H410" stroke="#909090" stroke-opacity="0.7"/>
<path d="M717 38V74" stroke="#909090" stroke-opacity="0.7"/>
<path d="M679 37.7031H755" stroke="#909090" stroke-opacity="0.7"/>
<path d="M38 295H74" stroke="#909090" stroke-opacity="0.7"/>
<path d="M37.7031 333L37.7031 257" stroke="#909090" stroke-opacity="0.7"/>
<path d="M38 563H74" stroke="#909090" stroke-opacity="0.7"/>
<path d="M37.7031 601L37.7031 525" stroke="#909090" stroke-opacity="0.7"/>
<g clip-path="url(#clip1_103_64)">
<path d="M1396 563H1360" stroke="#909090" stroke-opacity="0.7"/>
<path d="M1396.3 525V601" stroke="#909090" stroke-opacity="0.7"/>
</g>
<path d="M1396 295H1360" stroke="#909090" stroke-opacity="0.7"/>
<path d="M1396.3 257V333" stroke="#909090" stroke-opacity="0.7"/>
<path d="M1062 38V74" stroke="#909090" stroke-opacity="0.7"/>
<path d="M1024 37.7031H1100" stroke="#909090" stroke-opacity="0.7"/>
<path d="M1062 820V784" stroke="#909090" stroke-opacity="0.7"/>
<path d="M1100 820.297H1024" stroke="#909090" stroke-opacity="0.7"/>
<path d="M717 820V784" stroke="#909090" stroke-opacity="0.7"/>
<path d="M755 820.297H679" stroke="#909090" stroke-opacity="0.7"/>
<path d="M372 820V784" stroke="#909090" stroke-opacity="0.7"/>
<path d="M410 820.297H334" stroke="#909090" stroke-opacity="0.7"/>
<path d="M1358 37.7031L1396 37.7031" stroke="#909090" stroke-opacity="0.7"/>
<path d="M1395.7 76V38" stroke="#909090" stroke-opacity="0.7"/>
<path d="M1396.3 782V820" stroke="#909090" stroke-opacity="0.7"/>
<path d="M1358 819.703H1396" stroke="#909090" stroke-opacity="0.7"/>
<g clip-path="url(#clip2_103_64)">
<path d="M76 820.297H38" stroke="#909090" stroke-opacity="0.7"/>
<path d="M38.2969 782L38.2969 820" stroke="#909090" stroke-opacity="0.7"/>
</g>
<g clip-path="url(#clip3_103_64)">
<path d="M372.297 257V333" stroke="#909090" stroke-opacity="0.7"/>
<path d="M334 294.703H410" stroke="#909090" stroke-opacity="0.7"/>
</g>
<g clip-path="url(#clip4_103_64)">
<path d="M372.297 525V601" stroke="#909090" stroke-opacity="0.7"/>
<path d="M334 562.703H410" stroke="#909090" stroke-opacity="0.7"/>
</g>
<g clip-path="url(#clip5_103_64)">
<path d="M717.297 525V601" stroke="#909090" stroke-opacity="0.7"/>
<path d="M679 562.703H755" stroke="#909090" stroke-opacity="0.7"/>
</g>
<g clip-path="url(#clip6_103_64)">
<path d="M717.297 257V333" stroke="#909090" stroke-opacity="0.7"/>
<path d="M679 294.703H755" stroke="#909090" stroke-opacity="0.7"/>
</g>
<g clip-path="url(#clip7_103_64)">
<path d="M1062.3 257V333" stroke="#909090" stroke-opacity="0.7"/>
<path d="M1024 294.703H1100" stroke="#909090" stroke-opacity="0.7"/>
</g>
<g clip-path="url(#clip8_103_64)">
<path d="M1062.3 525V601" stroke="#909090" stroke-opacity="0.7"/>
<path d="M1024 562.703H1100" stroke="#909090" stroke-opacity="0.7"/>
</g>
<path d="M1337.46 81L1335.14 77.01H1333.6V81H1332.32V71.242H1335.47C1336.21 71.242 1336.83 71.368 1337.34 71.62C1337.85 71.872 1338.23 72.2127 1338.48 72.642C1338.74 73.0713 1338.86 73.5613 1338.86 74.112C1338.86 74.784 1338.67 75.3767 1338.27 75.89C1337.89 76.4033 1337.31 76.744 1336.54 76.912L1338.99 81H1337.46ZM1333.6 75.988H1335.47C1336.16 75.988 1336.68 75.82 1337.03 75.484C1337.37 75.1387 1337.55 74.6813 1337.55 74.112C1337.55 73.5333 1337.37 73.0853 1337.03 72.768C1336.69 72.4507 1336.17 72.292 1335.47 72.292H1333.6V75.988ZM1342.11 72.278V75.54H1345.67V76.59H1342.11V79.95H1346.09V81H1340.84V71.228H1346.09V72.278H1342.11ZM1347.54 76.114C1347.54 75.162 1347.76 74.308 1348.19 73.552C1348.62 72.7867 1349.2 72.1893 1349.94 71.76C1350.68 71.3307 1351.51 71.116 1352.41 71.116C1353.48 71.116 1354.41 71.3727 1355.2 71.886C1355.99 72.3993 1356.57 73.1273 1356.94 74.07H1355.41C1355.14 73.482 1354.75 73.0293 1354.23 72.712C1353.73 72.3947 1353.12 72.236 1352.41 72.236C1351.73 72.236 1351.12 72.3947 1350.58 72.712C1350.04 73.0293 1349.61 73.482 1349.31 74.07C1349 74.6487 1348.84 75.33 1348.84 76.114C1348.84 76.8887 1349 77.57 1349.31 78.158C1349.61 78.7367 1350.04 79.1847 1350.58 79.502C1351.12 79.8193 1351.73 79.978 1352.41 79.978C1353.12 79.978 1353.73 79.824 1354.23 79.516C1354.75 79.1987 1355.14 78.746 1355.41 78.158H1356.94C1356.57 79.0913 1355.99 79.8147 1355.2 80.328C1354.41 80.832 1353.48 81.084 1352.41 81.084C1351.51 81.084 1350.68 80.874 1349.94 80.454C1349.2 80.0247 1348.62 79.432 1348.19 78.676C1347.76 77.92 1347.54 77.066 1347.54 76.114Z" fill="#081625"/>
<circle cx="1321" cy="76" r="6" fill="#D90000"/>
<defs>
<clipPath id="clip0_103_64">
<rect width="76" height="76" fill="white" transform="matrix(-1 0 0 -1 76 76)"/>
</clipPath>
<clipPath id="clip1_103_64">
<rect width="76" height="76" fill="white" transform="matrix(0 1 -1 0 1434 525)"/>
</clipPath>
<clipPath id="clip2_103_64">
<rect width="76" height="76" fill="white" transform="matrix(0 1 -1 0 76 782)"/>
</clipPath>
<clipPath id="clip3_103_64">
<rect width="76" height="76" fill="white" transform="translate(334 257)"/>
</clipPath>
<clipPath id="clip4_103_64">
<rect width="76" height="76" fill="white" transform="translate(334 525)"/>
</clipPath>
<clipPath id="clip5_103_64">
<rect width="76" height="76" fill="white" transform="translate(679 525)"/>
</clipPath>
<clipPath id="clip6_103_64">
<rect width="76" height="76" fill="white" transform="translate(679 257)"/>
</clipPath>
<clipPath id="clip7_103_64">
<rect width="76" height="76" fill="white" transform="translate(1024 257)"/>
</clipPath>
<clipPath id="clip8_103_64">
<rect width="76" height="76" fill="white" transform="translate(1024 525)"/>
</clipPath>
</defs>
</svg>
