<svg width="160" height="48" viewBox="0 0 160 48" fill="none" xmlns="http://www.w3.org/2000/svg">
<path d="M81.0697 1.48956H0V37.7696H81.0697V1.48956Z" fill="#081625"/>
<path d="M69.0414 38L81.4071 29.3397V46.6603L69.0414 38Z" fill="#EAEEED"/>
<path d="M18.6163 14.288C18.6163 15.136 18.4163 15.936 18.0163 16.688C17.6163 17.44 16.9763 18.056 16.0963 18.536C15.2163 19 14.0883 19.232 12.7123 19.232H9.68834V26H6.95234V9.32H12.7123C13.9923 9.32 15.0723 9.544 15.9523 9.992C16.8483 10.424 17.5123 11.016 17.9443 11.768C18.3923 12.52 18.6163 13.36 18.6163 14.288ZM12.7123 17C13.7523 17 14.5283 16.768 15.0403 16.304C15.5523 15.824 15.8083 15.152 15.8083 14.288C15.8083 12.464 14.7763 11.552 12.7123 11.552H9.68834V17H12.7123ZM28.8338 26.168C27.2818 26.168 25.8498 25.808 24.5378 25.088C23.2418 24.352 22.2098 23.336 21.4418 22.04C20.6898 20.728 20.3138 19.256 20.3138 17.624C20.3138 15.992 20.6898 14.528 21.4418 13.232C22.2098 11.936 23.2418 10.928 24.5378 10.208C25.8498 9.472 27.2818 9.104 28.8338 9.104C30.4018 9.104 31.8338 9.472 33.1298 10.208C34.4418 10.928 35.4738 11.936 36.2258 13.232C36.9778 14.528 37.3538 15.992 37.3538 17.624C37.3538 19.256 36.9778 20.728 36.2258 22.04C35.4738 23.336 34.4418 24.352 33.1298 25.088C31.8338 25.808 30.4018 26.168 28.8338 26.168ZM28.8338 23.792C29.9378 23.792 30.9218 23.544 31.7858 23.048C32.6498 22.536 33.3218 21.816 33.8018 20.888C34.2978 19.944 34.5458 18.856 34.5458 17.624C34.5458 16.392 34.2978 15.312 33.8018 14.384C33.3218 13.456 32.6498 12.744 31.7858 12.248C30.9218 11.752 29.9378 11.504 28.8338 11.504C27.7298 11.504 26.7458 11.752 25.8818 12.248C25.0178 12.744 24.3378 13.456 23.8418 14.384C23.3618 15.312 23.1218 16.392 23.1218 17.624C23.1218 18.856 23.3618 19.944 23.8418 20.888C24.3378 21.816 25.0178 22.536 25.8818 23.048C26.7458 23.544 27.7298 23.792 28.8338 23.792ZM48.7101 26L44.8701 19.328H42.7821V26H40.0461V9.32H45.8061C47.0861 9.32 48.1661 9.544 49.0461 9.992C49.9421 10.44 50.6061 11.04 51.0381 11.792C51.4861 12.544 51.7101 13.384 51.7101 14.312C51.7101 15.4 51.3901 16.392 50.7501 17.288C50.1261 18.168 49.1581 18.768 47.8461 19.088L51.9741 26H48.7101ZM42.7821 17.144H45.8061C46.8301 17.144 47.5981 16.888 48.1101 16.376C48.6381 15.864 48.9021 15.176 48.9021 14.312C48.9021 13.448 48.6461 12.776 48.1341 12.296C47.6221 11.8 46.8461 11.552 45.8061 11.552H42.7821V17.144ZM65.9862 9.32V11.552H61.5462V26H58.8102V11.552H54.3462V9.32H65.9862Z" fill="#EAEEED"/>
<path d="M97.145 9.32V11.552H90.065V16.472H95.585V18.704H90.065V26H87.329V9.32H97.145ZM107.289 26.168C105.737 26.168 104.305 25.808 102.993 25.088C101.697 24.352 100.665 23.336 99.8965 22.04C99.1445 20.728 98.7685 19.256 98.7685 17.624C98.7685 15.992 99.1445 14.528 99.8965 13.232C100.665 11.936 101.697 10.928 102.993 10.208C104.305 9.472 105.737 9.104 107.289 9.104C108.857 9.104 110.289 9.472 111.585 10.208C112.897 10.928 113.929 11.936 114.681 13.232C115.433 14.528 115.809 15.992 115.809 17.624C115.809 19.256 115.433 20.728 114.681 22.04C113.929 23.336 112.897 24.352 111.585 25.088C110.289 25.808 108.857 26.168 107.289 26.168ZM107.289 23.792C108.393 23.792 109.377 23.544 110.241 23.048C111.105 22.536 111.777 21.816 112.257 20.888C112.753 19.944 113.001 18.856 113.001 17.624C113.001 16.392 112.753 15.312 112.257 14.384C111.777 13.456 111.105 12.744 110.241 12.248C109.377 11.752 108.393 11.504 107.289 11.504C106.185 11.504 105.201 11.752 104.337 12.248C103.473 12.744 102.793 13.456 102.297 14.384C101.817 15.312 101.577 16.392 101.577 17.624C101.577 18.856 101.817 19.944 102.297 20.888C102.793 21.816 103.473 22.536 104.337 23.048C105.201 23.544 106.185 23.792 107.289 23.792ZM121.237 23.792H126.877V26H118.501V9.32H121.237V23.792ZM131.901 9.32V26H129.165V9.32H131.901ZM143.101 26.168C141.549 26.168 140.117 25.808 138.805 25.088C137.509 24.352 136.477 23.336 135.709 22.04C134.957 20.728 134.581 19.256 134.581 17.624C134.581 15.992 134.957 14.528 135.709 13.232C136.477 11.936 137.509 10.928 138.805 10.208C140.117 9.472 141.549 9.104 143.101 9.104C144.669 9.104 146.101 9.472 147.397 10.208C148.709 10.928 149.741 11.936 150.493 13.232C151.245 14.528 151.621 15.992 151.621 17.624C151.621 19.256 151.245 20.728 150.493 22.04C149.741 23.336 148.709 24.352 147.397 25.088C146.101 25.808 144.669 26.168 143.101 26.168ZM143.101 23.792C144.205 23.792 145.189 23.544 146.053 23.048C146.917 22.536 147.589 21.816 148.069 20.888C148.565 19.944 148.813 18.856 148.813 17.624C148.813 16.392 148.565 15.312 148.069 14.384C147.589 13.456 146.917 12.744 146.053 12.248C145.189 11.752 144.205 11.504 143.101 11.504C141.997 11.504 141.013 11.752 140.149 12.248C139.285 12.744 138.605 13.456 138.109 14.384C137.629 15.312 137.389 16.392 137.389 17.624C137.389 18.856 137.629 19.944 138.109 20.888C138.605 21.816 139.285 22.536 140.149 23.048C141.013 23.544 141.997 23.792 143.101 23.792Z" fill="#081625"/>
</svg>
