<svg width="1434" height="858" viewBox="0 0 1434 858" fill="none" xmlns="http://www.w3.org/2000/svg">
<g clip-path="url(#clip0_20_18)">
<path d="M37.7031 76L37.7031 38" stroke="#909090" stroke-opacity="0.7"/>
<path d="M76 38.2969L38 38.2969" stroke="#909090" stroke-opacity="0.7"/>
</g>
<path d="M372 38V74" stroke="#909090" stroke-opacity="0.7"/>
<path d="M334 37.7031H410" stroke="#909090" stroke-opacity="0.7"/>
<path d="M717 38V74" stroke="#909090" stroke-opacity="0.7"/>
<path d="M679 37.7031H755" stroke="#909090" stroke-opacity="0.7"/>
<path d="M38 295H74" stroke="#909090" stroke-opacity="0.7"/>
<path d="M37.7031 333L37.7031 257" stroke="#909090" stroke-opacity="0.7"/>
<path d="M38 563H74" stroke="#909090" stroke-opacity="0.7"/>
<path d="M37.7031 601L37.7031 525" stroke="#909090" stroke-opacity="0.7"/>
<g clip-path="url(#clip1_20_18)">
<path d="M1396 563H1360" stroke="#909090" stroke-opacity="0.7"/>
<path d="M1396.3 525V601" stroke="#909090" stroke-opacity="0.7"/>
</g>
<path d="M1396 295H1360" stroke="#909090" stroke-opacity="0.7"/>
<path d="M1396.3 257V333" stroke="#909090" stroke-opacity="0.7"/>
<path d="M1062 38V74" stroke="#909090" stroke-opacity="0.7"/>
<path d="M1024 37.7031H1100" stroke="#909090" stroke-opacity="0.7"/>
<path d="M1062 820V784" stroke="#909090" stroke-opacity="0.7"/>
<path d="M1100 820.297H1024" stroke="#909090" stroke-opacity="0.7"/>
<path d="M717 820V784" stroke="#909090" stroke-opacity="0.7"/>
<path d="M755 820.297H679" stroke="#909090" stroke-opacity="0.7"/>
<path d="M372 820V784" stroke="#909090" stroke-opacity="0.7"/>
<path d="M410 820.297H334" stroke="#909090" stroke-opacity="0.7"/>
<path d="M1358 37.7031L1396 37.7031" stroke="#909090" stroke-opacity="0.7"/>
<path d="M1395.7 76V38" stroke="#909090" stroke-opacity="0.7"/>
<path d="M1396.3 782V820" stroke="#909090" stroke-opacity="0.7"/>
<path d="M1358 819.703H1396" stroke="#909090" stroke-opacity="0.7"/>
<g clip-path="url(#clip2_20_18)">
<path d="M76 820.297H38" stroke="#909090" stroke-opacity="0.7"/>
<path d="M38.2969 782L38.2969 820" stroke="#909090" stroke-opacity="0.7"/>
</g>
<g clip-path="url(#clip3_20_18)">
<path d="M372.297 257V333" stroke="#909090" stroke-opacity="0.7"/>
<path d="M334 294.703H410" stroke="#909090" stroke-opacity="0.7"/>
</g>
<g clip-path="url(#clip4_20_18)">
<path d="M372.297 525V601" stroke="#909090" stroke-opacity="0.7"/>
<path d="M334 562.703H410" stroke="#909090" stroke-opacity="0.7"/>
</g>
<g clip-path="url(#clip5_20_18)">
<path d="M717.297 525V601" stroke="#909090" stroke-opacity="0.7"/>
<path d="M679 562.703H755" stroke="#909090" stroke-opacity="0.7"/>
</g>
<g clip-path="url(#clip6_20_18)">
<path d="M717.297 257V333" stroke="#909090" stroke-opacity="0.7"/>
<path d="M679 294.703H755" stroke="#909090" stroke-opacity="0.7"/>
</g>
<g clip-path="url(#clip7_20_18)">
<path d="M1062.3 257V333" stroke="#909090" stroke-opacity="0.7"/>
<path d="M1024 294.703H1100" stroke="#909090" stroke-opacity="0.7"/>
</g>
<g clip-path="url(#clip8_20_18)">
<path d="M1062.3 525V601" stroke="#909090" stroke-opacity="0.7"/>
<path d="M1024 562.703H1100" stroke="#909090" stroke-opacity="0.7"/>
</g>
<defs>
<clipPath id="clip0_20_18">
<rect width="76" height="76" fill="white" transform="matrix(-1 0 0 -1 76 76)"/>
</clipPath>
<clipPath id="clip1_20_18">
<rect width="76" height="76" fill="white" transform="matrix(0 1 -1 0 1434 525)"/>
</clipPath>
<clipPath id="clip2_20_18">
<rect width="76" height="76" fill="white" transform="matrix(0 1 -1 0 76 782)"/>
</clipPath>
<clipPath id="clip3_20_18">
<rect width="76" height="76" fill="white" transform="translate(334 257)"/>
</clipPath>
<clipPath id="clip4_20_18">
<rect width="76" height="76" fill="white" transform="translate(334 525)"/>
</clipPath>
<clipPath id="clip5_20_18">
<rect width="76" height="76" fill="white" transform="translate(679 525)"/>
</clipPath>
<clipPath id="clip6_20_18">
<rect width="76" height="76" fill="white" transform="translate(679 257)"/>
</clipPath>
<clipPath id="clip7_20_18">
<rect width="76" height="76" fill="white" transform="translate(1024 257)"/>
</clipPath>
<clipPath id="clip8_20_18">
<rect width="76" height="76" fill="white" transform="translate(1024 525)"/>
</clipPath>
</defs>
</svg>
